<?xml version="1.0" standalone="no"?>
<!DOCTYPE svg PUBLIC "-//W3C//DTD SVG 20010904//EN"
 "http://www.w3.org/TR/2001/REC-SVG-20010904/DTD/svg10.dtd">
<svg version="1.0" xmlns="http://www.w3.org/2000/svg"
 width="2048.000000pt" height="2048.000000pt" viewBox="0 0 2048.000000 2048.000000"
 preserveAspectRatio="xMidYMid meet">

<g transform="translate(0.000000,2048.000000) scale(0.100000,-0.100000)"
fill="#3B82F6" stroke="none">
<path d="M9592 19244 c-345 -23 -850 -91 -1162 -155 -1375 -284 -2674 -886
-3767 -1746 -764 -601 -1415 -1298 -1955 -2093 -459 -677 -863 -1495 -1106
-2240 -246 -756 -386 -1460 -443 -2230 -17 -222 -22 -916 -9 -1145 70 -1249
389 -2445 955 -3574 564 -1127 1401 -2174 2380 -2976 2121 -1738 4838 -2418
7535 -1884 1321 261 2600 833 3688 1648 371 278 620 491 931 796 901 883 1605
1930 2068 3073 181 449 299 816 418 1306 143 587 216 1129 246 1827 27 627
-51 1539 -182 2128 -17 75 -39 177 -50 226 -56 252 -164 631 -244 860 -111
316 -125 352 -185 495 -33 80 -75 181 -92 225 -63 161 -368 751 -513 995 -449
749 -955 1382 -1575 1968 -1248 1181 -2780 1979 -4465 2326 -263 54 -657 115
-910 141 -452 46 -1132 59 -1563 29z m1098 -904 c428 -27 807 -79 1220 -166
165 -34 202 -42 230 -50 8 -2 49 -12 90 -23 41 -11 118 -32 170 -47 52 -14
102 -27 110 -29 8 -1 22 -5 30 -8 8 -3 56 -18 105 -32 663 -197 1419 -547
2028 -939 507 -326 1010 -737 1425 -1164 791 -816 1384 -1747 1795 -2817 126
-329 299 -911 332 -1120 3 -16 16 -77 30 -135 78 -326 146 -893 165 -1379 25
-630 -49 -1490 -177 -2046 -155 -678 -279 -1068 -515 -1620 -309 -719 -752
-1427 -1284 -2050 -153 -179 -511 -544 -719 -734 -810 -740 -1807 -1328 -2855
-1685 -650 -222 -1329 -360 -2080 -423 -268 -22 -1077 -27 -1102 -6 -8 7 -18
10 -22 6 -22 -22 -654 49 -1006 113 -1072 196 -2097 604 -2995 1192 -816 534
-1557 1227 -2106 1972 -160 217 -187 255 -301 430 -369 565 -644 1122 -882
1787 -91 256 -223 737 -275 1004 -11 57 -25 124 -31 149 -22 99 -61 355 -80
525 -52 467 -68 894 -51 1387 20 607 70 1015 186 1535 295 1324 914 2543 1814
3573 166 191 569 596 751 755 656 573 1397 1045 2175 1385 507 221 1110 410
1628 511 31 6 57 14 57 18 0 3 15 6 33 6 33 1 55 4 187 29 222 43 521 77 815
96 99 6 203 12 230 14 87 7 713 -4 875 -14z"/>
<path d="M9780 17134 c-1203 -99 -2225 -413 -3165 -972 -697 -415 -1263 -905
-1886 -1632 -496 -579 -798 -1121 -954 -1714 -189 -719 -264 -1330 -252 -2052
6 -365 12 -455 52 -771 78 -613 246 -1018 549 -1318 248 -247 527 -385 951
-471 163 -33 196 -36 345 -37 251 -1 393 38 538 148 162 123 246 297 261 546
3 58 3 252 -1 430 -8 406 -7 1195 2 1654 8 365 14 417 61 565 41 127 86 199
188 300 108 107 170 147 292 190 175 61 158 60 1325 60 1041 0 1064 0 1074
-19 13 -26 13 -94 -1 -124 -16 -35 -42 -47 -136 -63 -252 -44 -391 -132 -516
-326 -83 -127 -130 -256 -179 -486 -20 -93 -21 -133 -24 -897 -2 -440 -5 -944
-7 -1120 l-3 -320 -31 -115 c-38 -144 -74 -224 -154 -342 -257 -380 -893 -704
-1586 -807 -252 -38 -373 -46 -698 -46 -473 1 -841 37 -1185 117 -193 45 -573
164 -739 232 -36 14 -69 26 -75 26 -6 0 -78 29 -160 65 -82 35 -153 62 -158
59 -15 -10 -1 -67 58 -229 152 -419 391 -909 637 -1309 275 -448 593 -851 972
-1232 241 -243 334 -326 605 -543 764 -612 1663 -1067 2600 -1317 1173 -311
2295 -321 3429 -29 790 204 1626 563 2264 972 871 559 1499 1193 2034 2053
427 687 776 1618 938 2505 9 50 20 113 26 140 59 316 69 699 24 935 -94 490
-327 880 -690 1156 -234 178 -473 290 -848 399 -332 97 -634 122 -877 72 -198
-41 -310 -97 -411 -204 -78 -81 -112 -152 -152 -308 -6 -25 -13 -443 -17
-1110 -7 -1149 -5 -1103 -60 -1315 -82 -321 -297 -540 -621 -634 -102 -29
-229 -54 -324 -62 -103 -9 -1633 -21 -1679 -13 -76 13 -113 64 -100 141 7 48
39 79 106 102 174 61 296 139 387 247 103 122 155 246 186 435 13 81 15 241
14 1087 -1 1375 10 1563 105 1762 38 81 133 204 197 256 103 84 240 149 384
182 86 20 125 21 915 25 1100 5 1516 -10 1980 -73 419 -57 712 -120 995 -212
137 -44 360 -130 417 -159 28 -14 28 -14 28 15 0 50 -68 370 -109 516 -95 335
-189 568 -412 1015 -174 349 -291 554 -471 825 -657 994 -1555 1802 -2592
2336 -784 403 -1498 640 -2266 753 -339 50 -467 59 -925 61 -236 1 -450 1
-475 -1z m2286 -5099 c12 -18 15 -38 11 -72 -7 -63 -35 -87 -124 -103 -100
-18 -253 -71 -318 -111 -32 -19 -88 -63 -124 -99 -187 -182 -269 -416 -301
-850 -6 -85 -15 -184 -21 -220 -15 -88 -5 -924 14 -1225 17 -264 10 -407 -29
-650 -40 -241 -72 -329 -177 -484 -136 -202 -312 -312 -592 -370 -53 -11 -987
-26 -1593 -26 l-354 0 -20 25 c-25 31 -21 118 8 156 22 29 26 32 194 113 266
128 402 298 467 586 14 61 17 234 23 1360 5 959 10 1302 19 1335 60 226 130
344 275 468 107 90 298 165 466 181 47 5 552 9 1122 10 l1038 1 16 -25z"/>
</g>
</svg>
